<svg width="60" height="90" viewBox="0 0 60 90" fill="none" xmlns="http://www.w3.org/2000/svg">
<path fill-rule="evenodd" clip-rule="evenodd" d="M25.6001 50.8797V31.5871C22.9764 30.9078 20.8628 29.5249 19.2594 27.4385C17.656 25.3521 16.8543 22.9989 16.8543 20.3788V2.91126C16.8543 2.08641 17.1342 1.39547 17.6939 0.83845C18.2537 0.281431 18.9456 0.00195087 19.7696 1.00388e-05C20.5936 -0.00193079 21.2865 0.27755 21.8482 0.83845C22.4098 1.39935 22.6887 2.09029 22.6849 2.91126V17.4675H25.6001V2.91126C25.6001 2.08641 25.88 1.39547 26.4397 0.83845C26.9994 0.281431 27.6913 0.00195087 28.5154 1.00388e-05C29.3394 -0.00193079 30.0323 0.27755 30.5939 0.83845C31.1556 1.39935 31.4345 2.09029 31.4306 2.91126V17.4675H34.3459V2.91126C34.3459 2.08641 34.6257 1.39547 35.1855 0.83845C35.7452 0.281431 36.4371 0.00195087 37.2611 1.00388e-05C38.0852 -0.00193079 38.778 0.27755 39.3397 0.83845C39.9014 1.39935 40.1803 2.09029 40.1764 2.91126V20.3788C40.1764 22.9989 39.3747 25.3521 37.7713 27.4385C36.1679 29.5249 34.0544 30.9078 31.4306 31.5871V52.6235C31.4874 55.0642 32.2717 57.4352 33.687 59.4317C36.0775 58.3008 38.6852 57.7013 41.3302 57.6745C44.1761 57.668 46.9686 58.4464 49.3997 59.9239C56.7262 64.3561 60.6574 74.564 59.9097 87.2305C59.8684 87.9278 59.5724 88.5857 59.0778 89.0796C58.5833 89.5734 57.9245 89.869 57.2263 89.9103C44.5423 90.6545 34.3203 86.7336 29.882 79.4147C26.9914 74.6591 26.8914 68.912 29.5344 63.4121C28.2479 61.7733 27.2583 59.9225 26.6104 57.9432L23.596 60.9535C25.308 64.941 25.127 69.0642 23.0245 72.531C19.6958 78.0261 12.1145 80.965 2.74733 80.4253C2.04873 80.3839 1.38962 80.088 0.89499 79.5936C0.400363 79.0993 0.104622 78.4408 0.0638573 77.7431C-0.479027 68.3889 2.46398 60.8179 7.96187 57.4938C9.82652 56.3589 11.969 55.7606 14.1527 55.7651C16.0144 55.7801 17.8536 56.1741 19.5577 56.9231L25.6001 50.8797ZM5.72367 74.7709C5.87844 68.9048 7.78091 64.2776 10.9215 62.3754C12.1285 61.6372 13.5504 61.3296 14.9551 61.5028L12.2549 64.1992C11.7182 64.7352 11.4166 65.4622 11.4166 66.2203C11.4166 66.9784 11.7182 67.7054 12.2549 68.2414C12.7917 68.7775 13.5197 69.0786 14.2789 69.0786C15.038 69.0786 15.766 68.7775 16.3028 68.2414L19.0005 65.5379C19.1854 66.9444 18.8802 68.3717 18.1362 69.5801C16.2337 72.7164 11.5978 74.6163 5.72367 74.7709ZM37.9134 63.902C40.9635 62.9722 43.9018 63.2623 46.44 64.796C51.4617 67.8443 54.319 75.0205 54.2856 84.2939H54.1237C44.9161 84.2939 37.7848 81.4406 34.7608 76.4472C33.2346 73.9244 32.9441 70.9783 33.8656 67.9442L42.7351 76.7991C43.2718 77.3352 43.9999 77.6363 44.759 77.6363C45.5181 77.6363 46.2461 77.3352 46.7829 76.7991C47.3197 76.2631 47.6212 75.5361 47.6212 74.778C47.6212 74.0199 47.3197 73.2929 46.7829 72.7569L37.9134 63.902Z" fill="#1B5E20"/>
</svg>
